<?xml version="1.0" encoding="utf-8"?>
<!-- Generator: Adobe Illustrator 22.1.0, SVG Export Plug-In . SVG Version: 6.00 Build 0)  -->
<svg version="1.1" id="Layer_1" xmlns="http://www.w3.org/2000/svg" xmlns:xlink="http://www.w3.org/1999/xlink" x="0px" y="0px"
	 viewBox="0 0 307 376" style="enable-background:new 0 0 307 376;" xml:space="preserve">
<style type="text/css">
	.st0{clip-path:url(#SVGID_3_);}
	.st1{fill:none;}
	.st2{opacity:0.3;clip-path:url(#SVGID_3_);}
	.st3{fill:url(#SVGID_4_);}
	.st4{opacity:0.45;clip-path:url(#SVGID_3_);}
	.st5{fill:url(#SVGID_5_);}
	.st6{opacity:0.6;clip-path:url(#SVGID_3_);}
	.st7{fill:url(#SVGID_6_);}
	.st8{fill:url(#SVGID_7_);}
	.st9{opacity:0.4;clip-path:url(#SVGID_3_);}
	.st10{fill:#FFFFFF;}
	.st11{opacity:0.15;clip-path:url(#SVGID_3_);}
	.st12{opacity:0.6;}
</style>
<g>
	<defs>
		<rect id="SVGID_1_" x="-0.2" y="0" width="306.9" height="375.7"/>
	</defs>
	<linearGradient id="SVGID_2_" gradientUnits="userSpaceOnUse" x1="153.2746" y1="375.6454" x2="153.2746" y2="-2.700000e-02">
		<stop  offset="0" style="stop-color:#097FF5"/>
		<stop  offset="0.2799" style="stop-color:#1687F7"/>
		<stop  offset="0.7979" style="stop-color:#399AFD"/>
		<stop  offset="1" style="stop-color:#48A3FF"/>
	</linearGradient>
	<use xlink:href="#SVGID_1_"  style="overflow:visible;fill:url(#SVGID_2_);"/>
	<clipPath id="SVGID_3_">
		<use xlink:href="#SVGID_1_"  style="overflow:visible;"/>
	</clipPath>
	<g class="st0">
		<rect x="-0.2" y="0" class="st1" width="306.9" height="375.7"/>
	</g>
	<g class="st2">
		<linearGradient id="SVGID_4_" gradientUnits="userSpaceOnUse" x1="140.546" y1="290.8401" x2="152.2397" y2="424.499">
			<stop  offset="0" style="stop-color:#2390FF"/>
			<stop  offset="0.9146" style="stop-color:#2390FF;stop-opacity:0"/>
		</linearGradient>
		<path class="st3" d="M-54,334.3c14.2-13.7,37.4-22.5,59.1-18.3c14.9,2.9,28.3,9.7,41.9,15.4c13.7,5.8,28.7,10.7,43.9,9.3
			c33.4-3.1,54.4-34.3,87.4-39.2c35.2-5.2,71.8,21.3,104.6,9.6c23.7-8.5,35.4-34.4,60.9-38v134.7H-54V334.3z"/>
	</g>
	<g class="st4">
		<linearGradient id="SVGID_5_" gradientUnits="userSpaceOnUse" x1="147.5158" y1="429.8655" x2="147.5158" y2="316.8215">
			<stop  offset="8.544150e-02" style="stop-color:#2390FF;stop-opacity:0"/>
			<stop  offset="1" style="stop-color:#2390FF"/>
		</linearGradient>
		<path class="st5" d="M-23,344.3c18.3,3,28.5-0.1,43.7-8.3c10.2-5.5,18.9-13.4,31-15.8c14.9-2.9,30.3,3.4,41.7,11.1
			c11.5,7.7,21.2,17.1,34.7,22.7c28,11.5,63.8,2.9,89.1-11.8c10.9-6.4,20.8-13.8,32.7-19.1s26.7-8.2,39.6-4.6
			c10.6,3,18.5,9.9,28.6,13.8v97.7H-23V344.3z"/>
	</g>
	<g class="st6">
		
			<linearGradient id="SVGID_6_" gradientUnits="userSpaceOnUse" x1="9733.6465" y1="-3890.9917" x2="9733.6465" y2="-4036.2976" gradientTransform="matrix(-1 0 0 -1 9881.1611 -3933.2375)">
			<stop  offset="4.013720e-02" style="stop-color:#FFFFFF;stop-opacity:0"/>
			<stop  offset="0.9671" style="stop-color:#FFFFFF;stop-opacity:0.9795"/>
			<stop  offset="0.9865" style="stop-color:#FFFFFF"/>
		</linearGradient>
		<path class="st7" d="M318.1,48.5c-18.3-6-28.5,0.2-43.7,16.5c-10.2,11-18.9,26.6-31,31.3c-14.9,5.8-30.3-6.7-41.7-22
			c-11.5-15.3-21.2-34-34.7-45c-28-22.9-63.8-5.7-89.1,23.5C66.9,65.4,57.1,80.2,45.2,90.7c-11.9,10.5-26.7,16.3-39.6,9.1
			C-5.1,93.9-12.9,80.2-23,72.5V-42.2h341.1V48.5z"/>
	</g>
	<g class="st6">
		
			<linearGradient id="SVGID_7_" gradientUnits="userSpaceOnUse" x1="189.9231" y1="-3924.282" x2="189.9231" y2="-4009.9905" gradientTransform="matrix(1 0 0 -1 0 -3933.2375)">
			<stop  offset="0" style="stop-color:#FFFFFF;stop-opacity:0"/>
			<stop  offset="0.9662" style="stop-color:#FFFFFF;stop-opacity:0.9795"/>
			<stop  offset="0.9865" style="stop-color:#FFFFFF"/>
		</linearGradient>
		<path class="st8" d="M-3.4,34.5c20.8-4.6,32.3,0.1,49.6,12.8c11.6,8.5,21.4,20.6,35.2,24.3c16.9,4.5,34.3-5.2,47.3-17
			c13-11.8,24-26.3,39.3-34.9c31.7-17.8,72.4-4.4,101,18.2c12.4,9.8,23.6,21.3,37,29.4c13.5,8.1,30.2,12.7,44.9,7.1
			c12.1-4.6,20.9-15.3,32.4-21.2V-9H-3.4V34.5z"/>
	</g>
	<g class="st9">
		<g>
			<path class="st10" d="M49.5,73.2c0,1.2-1,2.3-2.3,2.3c-1.2,0-2.3-1-2.3-2.3c0-1.2,1-2.3,2.3-2.3C48.5,71,49.5,72,49.5,73.2z"/>
		</g>
		<g>
			<path class="st10" d="M215.5,291.6c0,1.2-1,2.3-2.3,2.3c-1.2,0-2.3-1-2.3-2.3c0-1.2,1-2.3,2.3-2.3
				C214.5,289.4,215.5,290.4,215.5,291.6z"/>
		</g>
		<g>
			<path class="st10" d="M63.7,352.1c0,0.6-0.5,1.2-1.2,1.2c-0.6,0-1.2-0.5-1.2-1.2c0-0.6,0.5-1.2,1.2-1.2
				C63.2,351,63.7,351.5,63.7,352.1z"/>
		</g>
		<g>
			<circle class="st10" cx="256.2" cy="288.9" r="2.5"/>
		</g>
		<g>
			<path class="st10" d="M76.6,333.8c0,1.6-1.3,2.8-2.8,2.8c-1.6,0-2.8-1.3-2.8-2.8s1.3-2.8,2.8-2.8
				C75.3,330.9,76.6,332.2,76.6,333.8z"/>
		</g>
		<g>
			<path class="st10" d="M52.3,57.8c0,0.7-0.6,1.4-1.4,1.4c-0.7,0-1.4-0.6-1.4-1.4c0-0.7,0.6-1.4,1.4-1.4
				C51.7,56.5,52.3,57.1,52.3,57.8z"/>
		</g>
		<g>
			<path class="st10" d="M250.7,309.1c0,0.7-0.6,1.4-1.4,1.4s-1.4-0.6-1.4-1.4s0.6-1.4,1.4-1.4S250.7,308.4,250.7,309.1z"/>
		</g>
		<g>
			<circle class="st10" cx="20.7" cy="66.2" r="0.8"/>
		</g>
		<g>
			<path class="st10" d="M279.6,216.3c0,0.4-0.4,0.8-0.8,0.8c-0.4,0-0.8-0.4-0.8-0.8c0-0.4,0.4-0.8,0.8-0.8
				C279.3,215.5,279.6,215.9,279.6,216.3z"/>
		</g>
		<g>
			<path class="st10" d="M102.1,311.1c0,0.4-0.4,0.8-0.8,0.8c-0.4,0-0.8-0.4-0.8-0.8c0-0.4,0.4-0.8,0.8-0.8
				C101.8,310.3,102.1,310.7,102.1,311.1z"/>
		</g>
		<g>
			<path class="st10" d="M28.2,296.7c0,0.9-0.7,1.7-1.7,1.7c-0.9,0-1.7-0.7-1.7-1.7c0-0.9,0.7-1.7,1.7-1.7
				C27.5,295,28.2,295.8,28.2,296.7z"/>
		</g>
		<g>
			<circle class="st10" cx="258.3" cy="238.9" r="0.8"/>
		</g>
	</g>
	<g class="st11">
		<path class="st10" d="M305.4,416.1h1.4V-35.7h-1.4v26h-29.3v-26h-1.4v26h-29.3v-26h-1.4v26h-29.3v-26h-1.4v26h-29.3v-26h-1.4v26
			h-29.3v-26h-1.4v26h-29.3v-26h-1.4v26H92.2v-26h-1.4v26H61.5v-26h-1.4v26H30.9v-26h-1.4v26H0.2v-26h-1.4v451.8h1.4v-26h29.3v26
			h1.4v-26h29.3v26h1.4v-26h29.3v26h1.4v-26h29.3v26h1.4v-26h29.3v26h1.4v-26h29.3v26h1.4v-26h29.3v26h1.4v-26h29.3v26h1.4v-26h29.3
			v26h1.4v-26h29.3V416.1z M29.5,388.7H0.2v-29.3h29.3V388.7z M60.1,388.7H30.9v-29.3h29.3V388.7z M90.8,388.7H61.5v-29.3h29.3
			V388.7z M121.4,388.7H92.2v-29.3h29.3V388.7z M152.1,388.7h-29.3v-29.3h29.3V388.7z M182.8,388.7h-29.3v-29.3h29.3V388.7z
			 M213.4,388.7h-29.3v-29.3h29.3V388.7z M244.1,388.7h-29.3v-29.3h29.3V388.7z M274.7,388.7h-29.3v-29.3h29.3V388.7z M305.4,388.7
			h-29.3v-29.3h29.3V388.7z M29.5,358.1H0.2v-29.3h29.3V358.1z M60.1,358.1H30.9v-29.3h29.3V358.1z M90.8,358.1H61.5v-29.3h29.3
			V358.1z M121.4,358.1H92.2v-29.3h29.3V358.1z M152.1,358.1h-29.3v-29.3h29.3V358.1z M182.8,358.1h-29.3v-29.3h29.3V358.1z
			 M213.4,358.1h-29.3v-29.3h29.3V358.1z M244.1,358.1h-29.3v-29.3h29.3V358.1z M274.7,358.1h-29.3v-29.3h29.3V358.1z M305.4,358.1
			h-29.3v-29.3h29.3V358.1z M29.5,327.4H0.2v-29.3h29.3V327.4z M60.1,327.4H30.9v-29.3h29.3V327.4z M90.8,327.4H61.5v-29.3h29.3
			V327.4z M121.4,327.4H92.2v-29.3h29.3V327.4z M152.1,327.4h-29.3v-29.3h29.3V327.4z M182.8,327.4h-29.3v-29.3h29.3V327.4z
			 M213.4,327.4h-29.3v-29.3h29.3V327.4z M244.1,327.4h-29.3v-29.3h29.3V327.4z M274.7,327.4h-29.3v-29.3h29.3V327.4z M305.4,327.4
			h-29.3v-29.3h29.3V327.4z M29.5,296.8H0.2v-29.3h29.3V296.8z M60.1,296.8H30.9v-29.3h29.3V296.8z M90.8,296.8H61.5v-29.3h29.3
			V296.8z M121.4,296.8H92.2v-29.3h29.3V296.8z M152.1,296.8h-29.3v-29.3h29.3V296.8z M182.8,296.8h-29.3v-29.3h29.3V296.8z
			 M213.4,296.8h-29.3v-29.3h29.3V296.8z M244.1,296.8h-29.3v-29.3h29.3V296.8z M274.7,296.8h-29.3v-29.3h29.3V296.8z M305.4,296.8
			h-29.3v-29.3h29.3V296.8z M29.5,266.1H0.2v-29.3h29.3V266.1z M60.1,266.1H30.9v-29.3h29.3V266.1z M90.8,266.1H61.5v-29.3h29.3
			V266.1z M121.4,266.1H92.2v-29.3h29.3V266.1z M152.1,266.1h-29.3v-29.3h29.3V266.1z M182.8,266.1h-29.3v-29.3h29.3V266.1z
			 M213.4,266.1h-29.3v-29.3h29.3V266.1z M244.1,266.1h-29.3v-29.3h29.3V266.1z M274.7,266.1h-29.3v-29.3h29.3V266.1z M305.4,266.1
			h-29.3v-29.3h29.3V266.1z M29.5,235.5H0.2v-29.3h29.3V235.5z M60.1,235.5H30.9v-29.3h29.3V235.5z M90.8,235.5H61.5v-29.3h29.3
			V235.5z M121.4,235.5H92.2v-29.3h29.3V235.5z M152.1,235.5h-29.3v-29.3h29.3V235.5z M182.8,235.5h-29.3v-29.3h29.3V235.5z
			 M213.4,235.5h-29.3v-29.3h29.3V235.5z M244.1,235.5h-29.3v-29.3h29.3V235.5z M274.7,235.5h-29.3v-29.3h29.3V235.5z M305.4,235.5
			h-29.3v-29.3h29.3V235.5z M29.5,204.8H0.2v-29.3h29.3V204.8z M60.1,204.8H30.9v-29.3h29.3V204.8z M90.8,204.8H61.5v-29.3h29.3
			V204.8z M121.4,204.8H92.2v-29.3h29.3V204.8z M152.1,204.8h-29.3v-29.3h29.3V204.8z M182.8,204.8h-29.3v-29.3h29.3V204.8z
			 M213.4,204.8h-29.3v-29.3h29.3V204.8z M244.1,204.8h-29.3v-29.3h29.3V204.8z M274.7,204.8h-29.3v-29.3h29.3V204.8z M305.4,204.8
			h-29.3v-29.3h29.3V204.8z M29.5,174.2H0.2v-29.3h29.3V174.2z M60.1,174.2H30.9v-29.3h29.3V174.2z M90.8,174.2H61.5v-29.3h29.3
			V174.2z M121.4,174.2H92.2v-29.3h29.3V174.2z M152.1,174.2h-29.3v-29.3h29.3V174.2z M182.8,174.2h-29.3v-29.3h29.3V174.2z
			 M213.4,174.2h-29.3v-29.3h29.3V174.2z M244.1,174.2h-29.3v-29.3h29.3V174.2z M274.7,174.2h-29.3v-29.3h29.3V174.2z M305.4,174.2
			h-29.3v-29.3h29.3V174.2z M29.5,143.5H0.2v-29.3h29.3V143.5z M60.1,143.5H30.9v-29.3h29.3V143.5z M90.8,143.5H61.5v-29.3h29.3
			V143.5z M121.4,143.5H92.2v-29.3h29.3V143.5z M152.1,143.5h-29.3v-29.3h29.3V143.5z M182.8,143.5h-29.3v-29.3h29.3V143.5z
			 M213.4,143.5h-29.3v-29.3h29.3V143.5z M244.1,143.5h-29.3v-29.3h29.3V143.5z M274.7,143.5h-29.3v-29.3h29.3V143.5z M305.4,143.5
			h-29.3v-29.3h29.3V143.5z M29.5,112.9H0.2V83.6h29.3V112.9z M60.1,112.9H30.9V83.6h29.3V112.9z M90.8,112.9H61.5V83.6h29.3V112.9z
			 M121.4,112.9H92.2V83.6h29.3V112.9z M152.1,112.9h-29.3V83.6h29.3V112.9z M182.8,112.9h-29.3V83.6h29.3V112.9z M213.4,112.9
			h-29.3V83.6h29.3V112.9z M244.1,112.9h-29.3V83.6h29.3V112.9z M274.7,112.9h-29.3V83.6h29.3V112.9z M305.4,112.9h-29.3V83.6h29.3
			V112.9z M29.5,82.2H0.2V52.9h29.3V82.2z M60.1,82.2H30.9V52.9h29.3V82.2z M90.8,82.2H61.5V52.9h29.3V82.2z M121.4,82.2H92.2V52.9
			h29.3V82.2z M152.1,82.2h-29.3V52.9h29.3V82.2z M182.8,82.2h-29.3V52.9h29.3V82.2z M213.4,82.2h-29.3V52.9h29.3V82.2z M244.1,82.2
			h-29.3V52.9h29.3V82.2z M274.7,82.2h-29.3V52.9h29.3V82.2z M305.4,82.2h-29.3V52.9h29.3V82.2z M29.5,51.5H0.2V22.3h29.3V51.5z
			 M60.1,51.5H30.9V22.3h29.3V51.5z M90.8,51.5H61.5V22.3h29.3V51.5z M121.4,51.5H92.2V22.3h29.3V51.5z M152.1,51.5h-29.3V22.3h29.3
			V51.5z M182.8,51.5h-29.3V22.3h29.3V51.5z M213.4,51.5h-29.3V22.3h29.3V51.5z M244.1,51.5h-29.3V22.3h29.3V51.5z M274.7,51.5
			h-29.3V22.3h29.3V51.5z M305.4,51.5h-29.3V22.3h29.3V51.5z M29.5,20.9H0.2V-8.4h29.3V20.9z M60.1,20.9H30.9V-8.4h29.3V20.9z
			 M90.8,20.9H61.5V-8.4h29.3V20.9z M121.4,20.9H92.2V-8.4h29.3V20.9z M152.1,20.9h-29.3V-8.4h29.3V20.9z M182.8,20.9h-29.3V-8.4
			h29.3V20.9z M213.4,20.9h-29.3V-8.4h29.3V20.9z M244.1,20.9h-29.3V-8.4h29.3V20.9z M274.7,20.9h-29.3V-8.4h29.3V20.9z M305.4,20.9
			h-29.3V-8.4h29.3V20.9z"/>
	</g>
	<g class="st6">
		<line class="st1" x1="-46.1" y1="393.4" x2="85.8" y2="261.5"/>
	</g>
	<g class="st6">
		<line class="st1" x1="252.8" y1="130.7" x2="360.7" y2="22.8"/>
	</g>
	<g class="st6">
		<line class="st1" x1="221.9" y1="390.6" x2="329.8" y2="282.7"/>
	</g>
	<g class="st6">
		<line class="st1" x1="239.5" y1="404.9" x2="347.4" y2="297"/>
	</g>
	<g class="st6">
		<line class="st1" x1="75.7" y1="121.5" x2="239.5" y2="-42.2"/>
	</g>
	<g class="st6">
		<line class="st1" x1="147.5" y1="69.8" x2="311.3" y2="-94"/>
	</g>
	<g class="st6">
		<line class="st1" x1="-24.1" y1="406.4" x2="72.6" y2="309.7"/>
	</g>
	<g class="st0">
		<g class="st12">
			<path class="st10" d="M236.3,309.7c0,3.8-3.1,6.9-6.9,6.9c-3.8,0-6.9-3.1-6.9-6.9c0-3.8,3.1-6.9,6.9-6.9
				C233.2,302.8,236.3,305.9,236.3,309.7z"/>
		</g>
		<g class="st12">
			<circle class="st1" cx="229.4" cy="309.7" r="13.6"/>
		</g>
	</g>
	<g class="st0">
		<g class="st12">
			<circle class="st10" cx="30.6" cy="102.3" r="6.9"/>
		</g>
		<g class="st12">
			<circle class="st1" cx="30.6" cy="102.3" r="13.6"/>
		</g>
	</g>
	<g class="st6">
		<path class="st10" d="M248.7,30.9c-4.8,2.6-10.7,0.8-13.3-4s-0.8-10.7,4-13.3c4.8-2.6,10.7-0.8,13.3,4
			C255.3,22.4,253.5,28.3,248.7,30.9z"/>
	</g>
	<g class="st6">
		
			<ellipse transform="matrix(0.1563 -0.9877 0.9877 0.1563 183.9129 259.8525)" class="st1" cx="244.1" cy="22.3" rx="14.8" ry="14.8"/>
	</g>
</g>
</svg>
