<?xml version="1.0" encoding="utf-8"?>
<!-- Generator: Adobe Illustrator 22.1.0, SVG Export Plug-In . SVG Version: 6.00 Build 0)  -->
<svg version="1.1" id="Layer_1" xmlns="http://www.w3.org/2000/svg" xmlns:xlink="http://www.w3.org/1999/xlink" x="0px" y="0px"
	 viewBox="0 0 307 376" style="enable-background:new 0 0 307 376;" xml:space="preserve">
<style type="text/css">
	.st0{clip-path:url(#SVGID_3_);fill:none;}
	.st1{opacity:0.3;clip-path:url(#SVGID_3_);fill:url(#SVGID_4_);}
	.st2{opacity:0.45;clip-path:url(#SVGID_3_);fill:url(#SVGID_5_);}
	.st3{opacity:0.6;clip-path:url(#SVGID_3_);fill:url(#SVGID_6_);}
	.st4{opacity:0.6;clip-path:url(#SVGID_3_);fill:url(#SVGID_7_);}
	.st5{opacity:0.4;clip-path:url(#SVGID_3_);}
	.st6{fill:#FFFFFF;}
	.st7{opacity:0.15;clip-path:url(#SVGID_3_);fill:#FFFFFF;}
	.st8{opacity:0.6;clip-path:url(#SVGID_3_);}
	.st9{fill:none;stroke:#FFFFFF;stroke-width:0.49;stroke-miterlimit:10;}
	.st10{clip-path:url(#SVGID_3_);}
	.st11{opacity:0.6;fill:#FFFFFF;}
	.st12{opacity:0.6;fill:none;stroke:#FFFFFF;stroke-width:0.49;stroke-miterlimit:10;}
	.st13{opacity:0.6;clip-path:url(#SVGID_3_);fill:#FFFFFF;}
	.st14{opacity:0.6;clip-path:url(#SVGID_3_);fill:none;stroke:#FFFFFF;stroke-width:0.49;stroke-miterlimit:10;}
</style>
<g>
	<defs>
		<rect id="SVGID_1_" x="-0.2" y="0.4" width="306.9" height="375.7"/>
	</defs>
	<linearGradient id="SVGID_2_" gradientUnits="userSpaceOnUse" x1="153.2777" y1="376.0988" x2="153.2777" y2="0.4265">
		<stop  offset="0" style="stop-color:#097FF5"/>
		<stop  offset="0.2799" style="stop-color:#1687F7"/>
		<stop  offset="0.7979" style="stop-color:#399AFD"/>
		<stop  offset="1" style="stop-color:#48A3FF"/>
	</linearGradient>
	<use xlink:href="#SVGID_1_"  style="overflow:visible;fill:url(#SVGID_2_);"/>
	<clipPath id="SVGID_3_">
		<use xlink:href="#SVGID_1_"  style="overflow:visible;"/>
	</clipPath>
	<rect x="-0.2" y="0.4" class="st0" width="306.9" height="375.7"/>
	<linearGradient id="SVGID_4_" gradientUnits="userSpaceOnUse" x1="140.5491" y1="291.2935" x2="152.2428" y2="424.9525">
		<stop  offset="0" style="stop-color:#2390FF"/>
		<stop  offset="0.9146" style="stop-color:#2390FF;stop-opacity:0"/>
	</linearGradient>
	<path class="st1" d="M-54,334.7c14.2-13.7,37.4-22.5,59.1-18.3c14.9,2.9,28.3,9.7,41.9,15.4c13.7,5.8,28.7,10.7,43.9,9.3
		c33.4-3.1,54.4-34.3,87.4-39.2c35.2-5.2,71.8,21.3,104.6,9.6c23.7-8.5,35.4-34.4,60.9-38v134.7H-54V334.7z"/>
	<linearGradient id="SVGID_5_" gradientUnits="userSpaceOnUse" x1="147.5189" y1="430.319" x2="147.5189" y2="317.2749">
		<stop  offset="8.544150e-02" style="stop-color:#2390FF;stop-opacity:0"/>
		<stop  offset="1" style="stop-color:#2390FF"/>
	</linearGradient>
	<path class="st2" d="M-23,344.8c18.3,3,28.5-0.1,43.7-8.3c10.2-5.5,18.9-13.4,31-15.8c14.9-2.9,30.3,3.4,41.7,11.1
		c11.5,7.7,21.2,17.1,34.7,22.7c28,11.5,63.8,2.9,89.1-11.8c10.9-6.4,20.8-13.8,32.7-19.1s26.7-8.2,39.6-4.6
		c10.6,3,18.5,9.9,28.6,13.8v97.7H-23V344.8z"/>
	
		<linearGradient id="SVGID_6_" gradientUnits="userSpaceOnUse" x1="10009.6436" y1="-3869.4451" x2="10009.6436" y2="-4014.751" gradientTransform="matrix(-1 0 0 -1 10157.1611 -3911.2375)">
		<stop  offset="4.013720e-02" style="stop-color:#FFFFFF;stop-opacity:0"/>
		<stop  offset="0.9671" style="stop-color:#FFFFFF;stop-opacity:0.9795"/>
		<stop  offset="0.9865" style="stop-color:#FFFFFF"/>
	</linearGradient>
	<path class="st3" d="M318.1,49c-18.3-6-28.5,0.2-43.7,16.5c-10.2,11-18.9,26.6-31,31.3c-14.9,5.8-30.3-6.7-41.7-22
		c-11.5-15.3-21.2-34-34.7-45c-28-22.9-63.8-5.7-89.1,23.5C66.9,65.9,57.1,80.7,45.2,91.2c-11.9,10.5-26.7,16.3-39.6,9.1
		C-5.1,94.4-12.9,80.6-23,73V-41.8h341.1V49z"/>
	
		<linearGradient id="SVGID_7_" gradientUnits="userSpaceOnUse" x1="189.9262" y1="-3902.7356" x2="189.9262" y2="-3988.4438" gradientTransform="matrix(1 0 0 -1 0 -3911.2375)">
		<stop  offset="0" style="stop-color:#FFFFFF;stop-opacity:0"/>
		<stop  offset="0.9662" style="stop-color:#FFFFFF;stop-opacity:0.9795"/>
		<stop  offset="0.9865" style="stop-color:#FFFFFF"/>
	</linearGradient>
	<path class="st4" d="M-3.4,34.9c20.8-4.6,32.3,0.1,49.6,12.8C57.7,56.2,67.5,68.3,81.3,72c16.9,4.5,34.3-5.2,47.3-17
		c13-11.8,24-26.3,39.3-34.9c31.7-17.8,72.4-4.4,101,18.2c12.4,9.8,23.6,21.3,37,29.4c13.5,8.1,30.2,12.7,44.9,7.1
		c12.1-4.6,20.9-15.3,32.4-21.2v-62H-3.4V34.9z"/>
	<g class="st5">
		<path class="st6" d="M49.5,73.7c0,1.2-1,2.3-2.3,2.3c-1.2,0-2.3-1-2.3-2.3c0-1.2,1-2.3,2.3-2.3C48.5,71.4,49.5,72.4,49.5,73.7z"/>
		<path class="st6" d="M215.5,292.1c0,1.2-1,2.3-2.3,2.3c-1.2,0-2.3-1-2.3-2.3c0-1.2,1-2.3,2.3-2.3
			C214.5,289.8,215.5,290.9,215.5,292.1z"/>
		<path class="st6" d="M63.7,352.6c0,0.6-0.5,1.2-1.2,1.2c-0.6,0-1.2-0.5-1.2-1.2c0-0.6,0.5-1.2,1.2-1.2
			C63.2,351.4,63.7,352,63.7,352.6z"/>
		<circle class="st6" cx="256.2" cy="289.3" r="2.5"/>
		<path class="st6" d="M76.6,334.2c0,1.6-1.3,2.8-2.8,2.8c-1.6,0-2.8-1.3-2.8-2.8s1.3-2.8,2.8-2.8C75.3,331.4,76.6,332.7,76.6,334.2
			z"/>
		<path class="st6" d="M52.3,58.3c0,0.7-0.6,1.4-1.4,1.4c-0.7,0-1.4-0.6-1.4-1.4c0-0.7,0.6-1.4,1.4-1.4
			C51.7,56.9,52.3,57.5,52.3,58.3z"/>
		<path class="st6" d="M250.7,309.6c0,0.7-0.6,1.4-1.4,1.4c-0.7,0-1.4-0.6-1.4-1.4s0.6-1.4,1.4-1.4
			C250.1,308.2,250.7,308.8,250.7,309.6z"/>
		<circle class="st6" cx="20.7" cy="66.6" r="0.8"/>
		<path class="st6" d="M279.6,216.8c0,0.4-0.4,0.8-0.8,0.8c-0.4,0-0.8-0.4-0.8-0.8c0-0.4,0.4-0.8,0.8-0.8
			C279.3,216,279.6,216.3,279.6,216.8z"/>
		<path class="st6" d="M102.1,311.6c0,0.4-0.4,0.8-0.8,0.8c-0.4,0-0.8-0.4-0.8-0.8c0-0.4,0.4-0.8,0.8-0.8
			C101.8,310.8,102.1,311.2,102.1,311.6z"/>
		<path class="st6" d="M28.2,297.2c0,0.9-0.7,1.7-1.7,1.7c-0.9,0-1.7-0.7-1.7-1.7c0-0.9,0.7-1.7,1.7-1.7
			C27.5,295.5,28.2,296.2,28.2,297.2z"/>
		<circle class="st6" cx="258.3" cy="239.3" r="0.8"/>
	</g>
	<path class="st7" d="M305.4,416.5h1.4V-35.3h-1.4v26h-29.3v-26h-1.4v26h-29.3v-26h-1.4v26h-29.3v-26h-1.4v26h-29.3v-26h-1.4v26
		h-29.3v-26h-1.4v26h-29.3v-26h-1.4v26H92.2v-26h-1.4v26H61.5v-26h-1.4v26H30.9v-26h-1.4v26H0.2v-26h-1.4v451.8h1.4v-26h29.3v26h1.4
		v-26h29.3v26h1.4v-26h29.3v26h1.4v-26h29.3v26h1.4v-26h29.3v26h1.4v-26h29.3v26h1.4v-26h29.3v26h1.4v-26h29.3v26h1.4v-26h29.3v26
		h1.4v-26h29.3V416.5z M29.5,389.2H0.2v-29.3h29.3V389.2z M60.1,389.2H30.9v-29.3h29.3V389.2z M90.8,389.2H61.5v-29.3h29.3V389.2z
		 M121.5,389.2H92.2v-29.3h29.3V389.2z M152.1,389.2h-29.3v-29.3h29.3V389.2z M182.8,389.2h-29.3v-29.3h29.3V389.2z M213.4,389.2
		h-29.3v-29.3h29.3V389.2z M244.1,389.2h-29.3v-29.3h29.3V389.2z M274.7,389.2h-29.3v-29.3h29.3V389.2z M305.4,389.2h-29.3v-29.3
		h29.3V389.2z M29.5,358.5H0.2v-29.3h29.3V358.5z M60.1,358.5H30.9v-29.3h29.3V358.5z M90.8,358.5H61.5v-29.3h29.3V358.5z
		 M121.5,358.5H92.2v-29.3h29.3V358.5z M152.1,358.5h-29.3v-29.3h29.3V358.5z M182.8,358.5h-29.3v-29.3h29.3V358.5z M213.4,358.5
		h-29.3v-29.3h29.3V358.5z M244.1,358.5h-29.3v-29.3h29.3V358.5z M274.7,358.5h-29.3v-29.3h29.3V358.5z M305.4,358.5h-29.3v-29.3
		h29.3V358.5z M29.5,327.9H0.2v-29.3h29.3V327.9z M60.1,327.9H30.9v-29.3h29.3V327.9z M90.8,327.9H61.5v-29.3h29.3V327.9z
		 M121.5,327.9H92.2v-29.3h29.3V327.9z M152.1,327.9h-29.3v-29.3h29.3V327.9z M182.8,327.9h-29.3v-29.3h29.3V327.9z M213.4,327.9
		h-29.3v-29.3h29.3V327.9z M244.1,327.9h-29.3v-29.3h29.3V327.9z M274.7,327.9h-29.3v-29.3h29.3V327.9z M305.4,327.9h-29.3v-29.3
		h29.3V327.9z M29.5,297.2H0.2V268h29.3V297.2z M60.1,297.2H30.9V268h29.3V297.2z M90.8,297.2H61.5V268h29.3V297.2z M121.5,297.2
		H92.2V268h29.3V297.2z M152.1,297.2h-29.3V268h29.3V297.2z M182.8,297.2h-29.3V268h29.3V297.2z M213.4,297.2h-29.3V268h29.3V297.2z
		 M244.1,297.2h-29.3V268h29.3V297.2z M274.7,297.2h-29.3V268h29.3V297.2z M305.4,297.2h-29.3V268h29.3V297.2z M29.5,266.6H0.2
		v-29.3h29.3V266.6z M60.1,266.6H30.9v-29.3h29.3V266.6z M90.8,266.6H61.5v-29.3h29.3V266.6z M121.5,266.6H92.2v-29.3h29.3V266.6z
		 M152.1,266.6h-29.3v-29.3h29.3V266.6z M182.8,266.6h-29.3v-29.3h29.3V266.6z M213.4,266.6h-29.3v-29.3h29.3V266.6z M244.1,266.6
		h-29.3v-29.3h29.3V266.6z M274.7,266.6h-29.3v-29.3h29.3V266.6z M305.4,266.6h-29.3v-29.3h29.3V266.6z M29.5,235.9H0.2v-29.3h29.3
		V235.9z M60.1,235.9H30.9v-29.3h29.3V235.9z M90.8,235.9H61.5v-29.3h29.3V235.9z M121.5,235.9H92.2v-29.3h29.3V235.9z M152.1,235.9
		h-29.3v-29.3h29.3V235.9z M182.8,235.9h-29.3v-29.3h29.3V235.9z M213.4,235.9h-29.3v-29.3h29.3V235.9z M244.1,235.9h-29.3v-29.3
		h29.3V235.9z M274.7,235.9h-29.3v-29.3h29.3V235.9z M305.4,235.9h-29.3v-29.3h29.3V235.9z M29.5,205.3H0.2V176h29.3V205.3z
		 M60.1,205.3H30.9V176h29.3V205.3z M90.8,205.3H61.5V176h29.3V205.3z M121.5,205.3H92.2V176h29.3V205.3z M152.1,205.3h-29.3V176
		h29.3V205.3z M182.8,205.3h-29.3V176h29.3V205.3z M213.4,205.3h-29.3V176h29.3V205.3z M244.1,205.3h-29.3V176h29.3V205.3z
		 M274.7,205.3h-29.3V176h29.3V205.3z M305.4,205.3h-29.3V176h29.3V205.3z M29.5,174.6H0.2v-29.3h29.3V174.6z M60.1,174.6H30.9
		v-29.3h29.3V174.6z M90.8,174.6H61.5v-29.3h29.3V174.6z M121.5,174.6H92.2v-29.3h29.3V174.6z M152.1,174.6h-29.3v-29.3h29.3V174.6z
		 M182.8,174.6h-29.3v-29.3h29.3V174.6z M213.4,174.6h-29.3v-29.3h29.3V174.6z M244.1,174.6h-29.3v-29.3h29.3V174.6z M274.7,174.6
		h-29.3v-29.3h29.3V174.6z M305.4,174.6h-29.3v-29.3h29.3V174.6z M29.5,144H0.2v-29.3h29.3V144z M60.1,144H30.9v-29.3h29.3V144z
		 M90.8,144H61.5v-29.3h29.3V144z M121.5,144H92.2v-29.3h29.3V144z M152.1,144h-29.3v-29.3h29.3V144z M182.8,144h-29.3v-29.3h29.3
		V144z M213.4,144h-29.3v-29.3h29.3V144z M244.1,144h-29.3v-29.3h29.3V144z M274.7,144h-29.3v-29.3h29.3V144z M305.4,144h-29.3
		v-29.3h29.3V144z M29.5,113.3H0.2V84h29.3V113.3z M60.1,113.3H30.9V84h29.3V113.3z M90.8,113.3H61.5V84h29.3V113.3z M121.5,113.3
		H92.2V84h29.3V113.3z M152.1,113.3h-29.3V84h29.3V113.3z M182.8,113.3h-29.3V84h29.3V113.3z M213.4,113.3h-29.3V84h29.3V113.3z
		 M244.1,113.3h-29.3V84h29.3V113.3z M274.7,113.3h-29.3V84h29.3V113.3z M305.4,113.3h-29.3V84h29.3V113.3z M29.5,82.7H0.2V53.4
		h29.3V82.7z M60.1,82.7H30.9V53.4h29.3V82.7z M90.8,82.7H61.5V53.4h29.3V82.7z M121.5,82.7H92.2V53.4h29.3V82.7z M152.1,82.7h-29.3
		V53.4h29.3V82.7z M182.8,82.7h-29.3V53.4h29.3V82.7z M213.4,82.7h-29.3V53.4h29.3V82.7z M244.1,82.7h-29.3V53.4h29.3V82.7z
		 M274.7,82.7h-29.3V53.4h29.3V82.7z M305.4,82.7h-29.3V53.4h29.3V82.7z M29.5,52H0.2V22.7h29.3V52z M60.1,52H30.9V22.7h29.3V52z
		 M90.8,52H61.5V22.7h29.3V52z M121.5,52H92.2V22.7h29.3V52z M152.1,52h-29.3V22.7h29.3V52z M182.8,52h-29.3V22.7h29.3V52z
		 M213.4,52h-29.3V22.7h29.3V52z M244.1,52h-29.3V22.7h29.3V52z M274.7,52h-29.3V22.7h29.3V52z M305.4,52h-29.3V22.7h29.3V52z
		 M29.5,21.3H0.2V-7.9h29.3V21.3z M60.1,21.3H30.9V-7.9h29.3V21.3z M90.8,21.3H61.5V-7.9h29.3V21.3z M121.5,21.3H92.2V-7.9h29.3
		V21.3z M152.1,21.3h-29.3V-7.9h29.3V21.3z M182.8,21.3h-29.3V-7.9h29.3V21.3z M213.4,21.3h-29.3V-7.9h29.3V21.3z M244.1,21.3h-29.3
		V-7.9h29.3V21.3z M274.7,21.3h-29.3V-7.9h29.3V21.3z M305.4,21.3h-29.3V-7.9h29.3V21.3z"/>
	<g class="st8">
		<g>
			<line class="st9" x1="-44.1" y1="391.8" x2="83.8" y2="263.9"/>
			<g>
				<path class="st6" d="M-41.9,393.8c-1.2,1.2-3,1.2-4.2,0c-1.2-1.2-1.2-3,0-4.2c1.2-1.2,3-1.2,4.2,0S-40.8,392.7-41.9,393.8z"/>
			</g>
			<g>
				<path class="st6" d="M85.8,266.1c1.2-1.2,1.2-3,0-4.2c-1.2-1.2-3-1.2-4.2,0c-1.2,1.2-1.2,3,0,4.2S84.6,267.3,85.8,266.1z"/>
			</g>
		</g>
	</g>
	<g class="st8">
		<g>
			<line class="st9" x1="254.8" y1="129.2" x2="358.7" y2="25.2"/>
			<g>
				<path class="st6" d="M257,131.2c-1.2,1.2-3,1.2-4.2,0c-1.2-1.2-1.2-3,0-4.2c1.2-1.2,3-1.2,4.2,0
					C258.1,128.1,258.1,130,257,131.2z"/>
			</g>
			<g>
				<path class="st6" d="M360.7,27.4c1.2-1.2,1.2-3,0-4.2c-1.2-1.2-3-1.2-4.2,0c-1.2,1.2-1.2,3,0,4.2
					C357.7,28.6,359.5,28.6,360.7,27.4z"/>
			</g>
		</g>
	</g>
	<g class="st8">
		<g>
			<line class="st9" x1="223.9" y1="389" x2="327.8" y2="285.1"/>
			<g>
				<path class="st6" d="M226,391c-1.2,1.2-3,1.2-4.2,0c-1.2-1.2-1.2-3,0-4.2c1.2-1.2,3-1.2,4.2,0S227.2,389.9,226,391z"/>
			</g>
			<g>
				
					<ellipse transform="matrix(0.9758 -0.2184 0.2184 0.9758 -54.3888 78.4683)" class="st6" cx="327.7" cy="285.2" rx="2.9" ry="2.9"/>
			</g>
		</g>
	</g>
	<g class="st8">
		<g>
			<line class="st9" x1="241.5" y1="403.4" x2="345.4" y2="299.5"/>
			<g>
				<path class="st6" d="M243.6,405.4c-1.2,1.2-3,1.2-4.2,0c-1.2-1.2-1.2-3,0-4.2c1.2-1.2,3-1.2,4.2,0S244.8,404.2,243.6,405.4z"/>
			</g>
			<g>
				<path class="st6" d="M347.4,301.7c1.2-1.2,1.2-3,0-4.2s-3-1.2-4.2,0c-1.2,1.2-1.2,3,0,4.2C344.3,302.8,346.2,302.8,347.4,301.7z
					"/>
			</g>
		</g>
	</g>
	<g class="st8">
		<g>
			<line class="st9" x1="77.7" y1="120" x2="237.5" y2="-39.8"/>
			<g>
				<path class="st6" d="M79.9,122c-1.2,1.2-3,1.2-4.2,0c-1.2-1.2-1.2-3,0-4.2c1.2-1.2,3-1.2,4.2,0C81,118.9,81,120.8,79.9,122z"/>
			</g>
			<g>
				<path class="st6" d="M239.5-37.6c1.2-1.2,1.2-3,0-4.2c-1.2-1.2-3-1.2-4.2,0c-1.2,1.2-1.2,3,0,4.2
					C236.5-36.5,238.3-36.5,239.5-37.6z"/>
			</g>
		</g>
	</g>
	<g class="st8">
		<g>
			<line class="st9" x1="149.5" y1="68.3" x2="309.3" y2="-91.5"/>
			<g>
				<path class="st6" d="M151.7,70.2c-1.2,1.2-3,1.2-4.2,0c-1.2-1.2-1.2-3,0-4.2c1.2-1.2,3-1.2,4.2,0
					C152.9,67.2,152.9,69.1,151.7,70.2z"/>
			</g>
			<g>
				
					<ellipse transform="matrix(0.8507 -0.5257 0.5257 0.8507 94.245 148.9128)" class="st6" cx="309.2" cy="-91.4" rx="2.9" ry="2.9"/>
			</g>
		</g>
	</g>
	<g class="st8">
		<g>
			<line class="st9" x1="-22.1" y1="404.9" x2="70.6" y2="312.2"/>
			<g>
				<path class="st6" d="M-19.9,406.9c-1.2,1.2-3,1.2-4.2,0s-1.2-3,0-4.2c1.2-1.2,3-1.2,4.2,0C-18.8,403.8-18.8,405.7-19.9,406.9z"
					/>
			</g>
			<g>
				<circle class="st6" cx="70.5" cy="312.3" r="2.9"/>
			</g>
		</g>
	</g>
	<g class="st10">
		<path class="st11" d="M236.3,310.2c0,3.8-3.1,6.9-6.9,6.9c-3.8,0-6.9-3.1-6.9-6.9c0-3.8,3.1-6.9,6.9-6.9
			C233.2,303.3,236.3,306.4,236.3,310.2z"/>
		<circle class="st12" cx="229.4" cy="310.2" r="13.6"/>
	</g>
	<g class="st10">
		<circle class="st11" cx="30.6" cy="102.8" r="6.9"/>
		<circle class="st12" cx="30.6" cy="102.8" r="13.6"/>
	</g>
	<path class="st13" d="M248.7,31.4c-4.8,2.6-10.7,0.8-13.3-4s-0.8-10.7,4-13.3c4.8-2.6,10.7-0.8,13.3,4
		C255.3,22.8,253.5,28.8,248.7,31.4z"/>
	
		<ellipse transform="matrix(0.1563 -0.9877 0.9877 0.1563 183.4676 260.2382)" class="st14" cx="244.1" cy="22.7" rx="14.8" ry="14.8"/>
</g>
</svg>
